<svg id="Lager_1" data-name="Lager 1" xmlns="http://www.w3.org/2000/svg" viewBox="0 0 188.96 53.89">
  <defs>
    <style>
      .cls-1 {
        fill: #383d38;
      }
    </style>
  </defs>
  <g>
    <path class="cls-1" d="M34.73,34.38c0,1.62,0,3-.15,4.27s-.26,2.32-.44,3.26a14.58,14.58,0,0,1-3.31,6.64q-4.63,5.34-12.76,5.34A17,17,0,0,1,6.79,50.2,15.08,15.08,0,0,1,1.51,39.69h8A8.93,8.93,0,0,0,11,43.59a8.47,8.47,0,0,0,7.17,3.2q8.68,0,8.68-10.65V31.36A14.77,14.77,0,0,1,16,36.18,14.59,14.59,0,0,1,4.5,31.11,18.76,18.76,0,0,1,0,18.28,19.77,19.77,0,0,1,4.18,5.55,14.55,14.55,0,0,1,16.07,0,13.8,13.8,0,0,1,26.82,4.82V1h7.91ZM27.14,18.14a11.52,11.52,0,0,0-2.67-8A8.84,8.84,0,0,0,17.54,7.1a8.51,8.51,0,0,0-7.1,3.34,12.12,12.12,0,0,0-2.35,7.74,12,12,0,0,0,2.35,7.66,8.53,8.53,0,0,0,7.1,3.27,8.65,8.65,0,0,0,7.17-3.31A11.74,11.74,0,0,0,27.14,18.14Z"/>
    <path class="cls-1" d="M44.72,1h7.91V4A14.79,14.79,0,0,1,56.5.88,8.76,8.76,0,0,1,60.57,0a12.75,12.75,0,0,1,6.54,2L63.49,9.28A7.53,7.53,0,0,0,59.1,7.66q-6.47,0-6.47,9.78V35.19H44.72Z"/>
    <path class="cls-1" d="M102.34,19.93H77.8a10.44,10.44,0,0,0,2.74,6.72,8.37,8.37,0,0,0,6.23,2.46,8.08,8.08,0,0,0,4.88-1.41A19.84,19.84,0,0,0,96,22.5l6.68,3.73a27.06,27.06,0,0,1-3.27,4.51,17.37,17.37,0,0,1-3.69,3.1,14.77,14.77,0,0,1-4.26,1.77,20.4,20.4,0,0,1-5,.57c-5.1,0-9.21-1.64-12.3-4.93s-4.64-7.68-4.64-13.15S71,8.31,74,5a15.49,15.49,0,0,1,12-5q7.56,0,12,4.82t4.36,13.25Zm-8.12-6.47q-1.65-6.32-8-6.32a8.06,8.06,0,0,0-2.71.44,7.7,7.7,0,0,0-2.3,1.26,8.11,8.11,0,0,0-1.78,2,9.32,9.32,0,0,0-1.12,2.63Z"/>
    <path class="cls-1" d="M118.9,53.82H111V1h7.91V4.68A14.63,14.63,0,0,1,129.52,0a14.78,14.78,0,0,1,11.63,5.2,18.79,18.79,0,0,1,4.64,13.05,18.49,18.49,0,0,1-4.6,12.83,15,15,0,0,1-22.29.28Zm18.81-35.54a11.81,11.81,0,0,0-2.67-8,8.64,8.64,0,0,0-6.83-3.13,9,9,0,0,0-7.06,3,11.43,11.43,0,0,0-2.71,7.94,11.69,11.69,0,0,0,2.71,8,8.87,8.87,0,0,0,7,3.06A8.57,8.57,0,0,0,135,26,11.26,11.26,0,0,0,137.71,18.28Z"/>
    <path class="cls-1" d="M162.07,53.82h-7.91V1h7.91V4.68a15,15,0,0,1,22.25.52A18.79,18.79,0,0,1,189,18.25a18.49,18.49,0,0,1-4.6,12.83,15,15,0,0,1-22.29.28Zm18.81-35.54a11.81,11.81,0,0,0-2.67-8,8.63,8.63,0,0,0-6.82-3.13,9,9,0,0,0-7.07,3,11.48,11.48,0,0,0-2.71,7.94,11.74,11.74,0,0,0,2.71,8,8.89,8.89,0,0,0,7,3.06A8.59,8.59,0,0,0,178.14,26,11.3,11.3,0,0,0,180.88,18.28Z"/>
  </g>
</svg>
